HIERARCHY
ROOT hip
{
  OFFSET 2.13865 82.0876 54.752
  CHANNELS 6 Xposition Yposition Zposition Zrotation Xrotation Yrotation
  JOINT abdomen
  {
    OFFSET 0 20.6881 -0.73152
    CHANNELS 3 Zrotation Xrotation Yrotation
    JOINT chest
    {
      OFFSET 0 11.7043 -0.48768
      CHANNELS 3 Zrotation Xrotation Yrotation
      JOINT neck
      {
        OFFSET 0 22.1894 -2.19456
        CHANNELS 3 Zrotation Xrotation Yrotation
        JOINT head
        {
          OFFSET -0.24384 7.07133 1.2192
          CHANNELS 3 Zrotation Xrotation Yrotation
          JOINT leftEye
          {
            OFFSET 4.14528 8.04674 8.04672
            CHANNELS 3 Zrotation Xrotation Yrotation
            End Site
            {
              OFFSET 1 0 0
            }
          }
          JOINT rightEye
          {
            OFFSET -3.6576 8.04674 8.04672
            CHANNELS 3 Zrotation Xrotation Yrotation
            End Site
            {
              OFFSET 1 0 0
            }
          }
        }
      }
      JOINT rCollar
      {
        OFFSET -2.68224 19.2634 -4.8768
        CHANNELS 3 Zrotation Xrotation Yrotation
        JOINT rShldr
        {
          OFFSET -8.77824 -1.95073 1.46304
          CHANNELS 3 Zrotation Xrotation Yrotation
          JOINT rForeArm
          {
            OFFSET -28.1742 -1.7115 0.48768
            CHANNELS 3 Zrotation Xrotation Yrotation
            JOINT rHand
            {
              OFFSET -22.5879 0.773209 7.07136
              CHANNELS 3 Zrotation Xrotation Yrotation
              JOINT rThumb1
              {
                OFFSET -1.2192 -0.487915 3.41376
                CHANNELS 3 Zrotation Xrotation Yrotation
                JOINT rThumb2
                {
                  OFFSET -3.37035 -0.52449 3.41376
                  CHANNELS 3 Zrotation Xrotation Yrotation
                  End Site
                  {
                    OFFSET -1.78271 -1.18214 1.43049
                  }
                }
              }
              JOINT rIndex1
              {
                OFFSET -7.75947 0.938293 5.60832
                CHANNELS 3 Zrotation Xrotation Yrotation
                JOINT rIndex2
                {
                  OFFSET -2.54057 -0.884171 1.56538
                  CHANNELS 3 Zrotation Xrotation Yrotation
                  End Site
                  {
                    OFFSET -1.62519 -0.234802 1.16502
                  }
                }
              }
              JOINT rMid1
              {
                OFFSET -8.24714 1.18213 3.41376
                CHANNELS 3 Zrotation Xrotation Yrotation
                JOINT rMid2
                {
                  OFFSET -3.10165 -0.590103 1.0647
                  CHANNELS 3 Zrotation Xrotation Yrotation
                  End Site
                  {
                    OFFSET -2.48547 -0.328903 0.83742
                  }
                }
              }
              JOINT rRing1
              {
                OFFSET -8.82822 0.546677 1.51678
                CHANNELS 3 Zrotation Xrotation Yrotation
                JOINT rRing2
                {
                  OFFSET -2.60934 -0.819778 -0.0198488
                  CHANNELS 3 Zrotation Xrotation Yrotation
                  End Site
                  {
                    OFFSET -2.33842 -0.294052 0.168128
                  }
                }
              }
              JOINT rPinky1
              {
                OFFSET -8.27202 -0.0477905 -0.4584
                CHANNELS 3 Zrotation Xrotation Yrotation
                JOINT rPinky2
                {
                  OFFSET -1.82734 -0.647385 -0.700984
                  CHANNELS 3 Zrotation Xrotation Yrotation
                  End Site
                  {
                    OFFSET -1.69225 -0.51767 -0.607171
                  }
                }
              }
            }
          }
        }
      }
      JOINT lCollar
      {
        OFFSET 2.68224 19.2634 -4.8768
        CHANNELS 3 Zrotation Xrotation Yrotation
        JOINT lShldr
        {
          OFFSET 8.77824 -1.95073 1.46304
          CHANNELS 3 Zrotation Xrotation Yrotation
          JOINT lForeArm
          {
            OFFSET 28.1742 -1.7115 0.48768
            CHANNELS 3 Zrotation Xrotation Yrotation
            JOINT lHand
            {
              OFFSET 22.5879 0.773209 7.07136
              CHANNELS 3 Zrotation Xrotation Yrotation
              JOINT lThumb1
              {
                OFFSET 1.2192 -0.487915 3.41376
                CHANNELS 3 Zrotation Xrotation Yrotation
                JOINT lThumb2
                {
                  OFFSET 3.37035 -0.52449 3.41376
                  CHANNELS 3 Zrotation Xrotation Yrotation
                  End Site
                  {
                    OFFSET 1.78271 -1.18214 1.43049
                  }
                }
              }
              JOINT lIndex1
              {
                OFFSET 7.75947 0.938293 5.60832
                CHANNELS 3 Zrotation Xrotation Yrotation
                JOINT lIndex2
                {
                  OFFSET 2.54057 -0.884171 1.56538
                  CHANNELS 3 Zrotation Xrotation Yrotation
                  End Site
                  {
                    OFFSET 1.62519 -0.234802 1.16502
                  }
                }
              }
              JOINT lMid1
              {
                OFFSET 8.24714 1.18213 3.41376
                CHANNELS 3 Zrotation Xrotation Yrotation
                JOINT lMid2
                {
                  OFFSET 3.10165 -0.590103 1.0647
                  CHANNELS 3 Zrotation Xrotation Yrotation
                  End Site
                  {
                    OFFSET 2.48547 -0.328903 0.83742
                  }
                }
              }
              JOINT lRing1
              {
                OFFSET 8.82822 0.546677 1.51678
                CHANNELS 3 Zrotation Xrotation Yrotation
                JOINT lRing2
                {
                  OFFSET 2.60934 -0.819778 -0.0198488
                  CHANNELS 3 Zrotation Xrotation Yrotation
                  End Site
                  {
                    OFFSET 2.33842 -0.294052 0.168128
                  }
                }
              }
              JOINT lPinky1
              {
                OFFSET 8.27202 -0.0477905 -0.4584
                CHANNELS 3 Zrotation Xrotation Yrotation
                JOINT lPinky2
                {
                  OFFSET 1.82734 -0.647385 -0.700984
                  CHANNELS 3 Zrotation Xrotation Yrotation
                  End Site
                  {
                    OFFSET 1.69225 -0.51767 -0.607171
                  }
                }
              }
            }
          }
        }
      }
    }
  }
  JOINT rButtock
  {
    OFFSET -8.77824 4.35084 1.2192
    CHANNELS 3 Zrotation Xrotation Yrotation
    JOINT rThigh
    {
      OFFSET 0 -1.70687 -2.19456
      CHANNELS 3 Zrotation Xrotation Yrotation
      JOINT rShin
      {
        OFFSET 0 -36.8199 0.73152
        CHANNELS 3 Zrotation Xrotation Yrotation
        JOINT rFoot
        {
          OFFSET 0.73152 -45.1104 -5.12064
          CHANNELS 3 Zrotation Xrotation Yrotation
          End Site
          {
            OFFSET -1.1221 -3.69964 12.103
          }
        }
      }
    }
  }
  JOINT lButtock
  {
    OFFSET 8.77824 4.35084 1.2192
    CHANNELS 3 Zrotation Xrotation Yrotation
    JOINT lThigh
    {
      OFFSET 0 -1.70687 -2.19456
      CHANNELS 3 Zrotation Xrotation Yrotation
      JOINT lShin
      {
        OFFSET 0 -36.8199 0.73152
        CHANNELS 3 Zrotation Xrotation Yrotation
        JOINT lFoot
        {
          OFFSET -0.73152 -45.1104 -5.12064
          CHANNELS 3 Zrotation Xrotation Yrotation
          End Site
          {
            OFFSET 1.1221 -3.69964 12.103
          }
        }
      }
    }
  }
}
MOTION
Frames:	6
Frame Time:	0.00833333
3.88859 82.4855 56.2023 3.31389 0.0169038 -0.0637764 -4.35901 0.00629447 -0.117462 -1.20165 0.0324804 -0.207692 -9.30135e-014 0 7.95139e-016 -2.79855e-013 3.18055e-015 2.38231e-015 -0 0 0 -0 0 0 -4.68185e-014 -3.23413e-016 5.96354e-016 -9.75838e-013 -6.80838e-015 6.95746e-015 -1.67909e-011 4.80582e-012 2.98972e-013 -1.92476e-010 -6.27429e-012 1.42171e-012 -4.53946e-010 -3.18906e-012 3.78804e-012 -7.83943e-010 -5.50554e-012 6.54161e-012 -4.53939e-010 -3.18533e-012 3.78168e-012 7.73091 5.47488 0.417314 -4.53946e-010 -3.1889e-012 3.7944e-012 2.90554 0.965183 0.102902 -4.5393e-010 -3.18841e-012 3.78725e-012 10.2786 0.731801 0.0259123 -4.53942e-010 -3.19089e-012 3.79122e-012 2.22167 -0.733487 -0.20892 -4.70109e-014 -3.23802e-016 3.97569e-016 -9.79591e-013 -6.62201e-015 4.96962e-015 -1.68523e-011 -5.24573e-012 3.11694e-013 -1.92409e-010 3.78491e-012 1.40899e-012 -4.53926e-010 -3.17356e-012 3.76578e-012 -7.83896e-010 -5.4801e-012 6.53206e-012 -4.5393e-010 -3.1734e-012 3.77214e-012 -7.73091 5.47488 -0.417314 -4.53928e-010 -3.1732e-012 3.76896e-012 -2.90554 0.965183 -0.102902 -4.53937e-010 -3.1733e-012 3.77214e-012 -10.2786 0.731801 -0.0259123 -4.5392e-010 -3.173e-012 3.7626e-012 -2.22167 -0.733487 0.20892 -2.03217e-016 0 -3.88251e-019 -2.89052 -1.94436 0.0304545 -0.00795599 -2.07874 -0.0649457 -0.419934 4.00218 0.126772 2.03217e-016 0 3.88251e-019 -3.72534 -11.2507 0.483795 -0.0143131 14.7726 -0.388797 0.54479 -3.54244 0.0125136 
1.42028 82.2435 54.0476 0.600489 2.68756 -1.00668 -1.9314 -1.89927 0.830879 -2.01518 -2.85745 -0.0812276 -1.86224 2.11065 -3.22964 4.45688 -1.98387 -5.94182 -0 0 0 -0 0 0 -5.41084e-014 3.34872e-014 -2.66573e-015 22.9369 -3.51081 -2.87336 -2.87927 -1.1215 4.6797 0.417557 14.4213 1.80258 2.03945e-010 -2.54544e-010 -7.16593e-011 3.45432e-010 -4.28942e-010 -1.46147e-010 2.03953e-010 -2.54543e-010 -7.16684e-011 7.73091 5.47488 0.417314 2.03946e-010 -2.54545e-010 -7.16565e-011 2.90554 0.965183 0.102902 2.0396e-010 -2.54544e-010 -7.16617e-011 10.2786 0.731801 0.0259123 2.03946e-010 -2.54545e-010 -7.16572e-011 2.22167 -0.733487 -0.20892 -5.42763e-014 3.34802e-014 -2.89519e-015 -22.5232 -1.55368 3.52918 2.44034 -0.896988 -4.01088 -0.143688 8.44011 -1.14049 -4.63781e-010 1.29278e-010 6.73394e-010 -7.84692e-010 2.30293e-010 1.16556e-009 -4.63784e-010 1.29277e-010 6.73404e-010 -7.73091 5.47488 -0.417314 -4.63782e-010 1.29277e-010 6.73396e-010 -2.90554 0.965183 -0.102902 -4.63791e-010 1.29277e-010 6.734e-010 -10.2786 0.731801 -0.0259123 -4.63775e-010 1.29278e-010 6.73391e-010 -2.22167 -0.733487 0.20892 -2.03217e-016 0 -3.88251e-019 -1.0333 -3.15408 7.53527 0.00470206 -1.97674 0.0412671 -0.859066 1.26836 -6.80152 2.03217e-016 0 3.88251e-019 -3.33372 -9.99985 -12.8337 -0.00281769 14.1303 -0.196969 1.8721 -11.2708 15.4875 
1.42095 82.2011 54.0121 -2.1825 5.48878 -2.01342 0.71877 -3.87331 1.8406 -2.86943 -5.92336 0.052969 -3.56344 4.30884 -6.6601 8.71858 -4.01216 -12.2497 -0 0 0 -0 0 0 -6.27958e-014 6.96389e-014 -4.76462e-015 46.8072 -7.19278 -5.9446 -5.73205 -2.28627 9.64481 -0.261844 29.6168 4.13189 8.9362e-010 -5.15133e-010 -1.59142e-010 1.529e-009 -8.67839e-010 -3.20651e-010 8.93629e-010 -5.15135e-010 -1.59154e-010 7.73091 5.47488 0.417314 8.93621e-010 -5.15136e-010 -1.59143e-010 2.90554 0.965183 0.102902 8.93632e-010 -5.15135e-010 -1.59147e-010 10.2786 0.731801 0.0259123 8.93618e-010 -5.15135e-010 -1.59141e-010 2.22167 -0.733487 -0.20892 -6.29396e-014 6.96247e-014 -5.02863e-015 -46.1181 -3.24084 7.25777 4.87383 -1.82529 -8.23759 0.0864863 17.4098 -2.43981 -4.81404e-010 2.60238e-010 1.38008e-009 -7.97883e-010 4.63913e-010 2.38885e-009 -4.81406e-010 2.60235e-010 1.38009e-009 -7.73091 5.47488 -0.417314 -4.81406e-010 2.60235e-010 1.38008e-009 -2.90554 0.965183 -0.102902 -4.81413e-010 2.60236e-010 1.38008e-009 -10.2786 0.731801 -0.0259123 -4.81398e-010 2.60238e-010 1.38007e-009 -2.22167 -0.733487 0.20892 -2.03217e-016 0 -3.88251e-019 1.28658 -4.30072 15.5124 0.0176322 -1.87341 0.153458 -2.03906 -1.57012 -14.1387 2.03217e-016 0 3.88251e-019 -2.28628 -8.19102 -26.7783 0.013965 13.4468 0.00394349 7.73918 -17.2381 32.86 
1.41606 82.1591 53.9753 -4.56048 8.01985 -2.91774 3.11375 -5.70452 2.73977 -3.60371 -8.63727 0.173977 -4.87304 6.25132 -9.74082 12.1532 -5.69584 -17.9061 -0 0 0 -0 0 0 -6.86882e-014 1.01108e-013 -9.18991e-015 67.7436 -10.4257 -8.74944 -8.09357 -3.27483 14.0598 -2.31383 43.0594 7.17679 1.51973e-009 -7.57254e-010 -2.22554e-010 2.60418e-009 -1.27582e-009 -4.51524e-010 1.51974e-009 -7.57258e-010 -2.22569e-010 7.73091 5.47488 0.417314 1.51973e-009 -7.57257e-010 -2.22558e-010 2.90554 0.965183 0.102902 1.51974e-009 -7.57256e-010 -2.2256e-010 10.2786 0.731801 0.0259123 1.51972e-009 -7.57255e-010 -2.22554e-010 2.22167 -0.733487 -0.20892 -6.88069e-014 1.01088e-013 -9.48071e-015 -66.9973 -4.59028 10.6181 6.94701 -2.63828 -12.0441 0.66697 25.278 -3.7433 -4.8349e-010 3.94182e-010 2.01265e-009 -7.86282e-010 7.01841e-010 3.4836e-009 -4.83492e-010 3.94178e-010 2.01267e-009 -7.73091 5.47488 -0.417314 -4.83491e-010 3.94177e-010 2.01265e-009 -2.90554 0.965183 -0.102902 -4.83497e-010 3.94179e-010 2.01266e-009 -10.2786 0.731801 -0.0259123 -4.83484e-010 3.94181e-010 2.01265e-009 -2.22167 -0.733487 0.20892 -2.03217e-016 0 -3.88251e-019 3.60356 -5.22363 22.6095 0.028883 -1.7727 0.253655 -3.68268 -3.90379 -20.7027 2.03217e-016 0 3.88251e-019 -0.762972 -6.41566 -39.147 0.0334059 12.8453 0.183453 15.9775 -19.1831 49.0635 
1.40789 82.1201 53.9364 -6.11251 9.88406 -3.54276 4.74142 -7.18424 3.35188 -4.06556 -10.4712 0.259404 -5.70181 7.63058 -11.8989 14.3752 -6.76296 -21.8563 -0 0 0 -0 0 0 -6.75929e-014 1.20873e-013 -1.94312e-014 82.1004 -12.6371 -10.7652 -9.61397 -3.91005 17.0795 -5.15462 52.2994 10.4766 1.98692e-009 -9.532e-010 -2.25788e-010 3.40841e-009 -1.60649e-009 -4.73317e-010 1.98693e-009 -9.53205e-010 -2.25803e-010 7.73091 5.47488 0.417314 1.98692e-009 -9.53203e-010 -2.25794e-010 2.90554 0.965183 0.102902 1.98693e-009 -9.53203e-010 -2.25794e-010 10.2786 0.731801 0.0259123 1.98691e-009 -9.532e-010 -2.25788e-010 2.22167 -0.733487 -0.20892 -6.76844e-014 1.20849e-013 -1.97294e-014 -81.5262 -5.1687 13.0233 8.37616 -3.21139 -14.7896 1.28902 30.4345 -4.73623 -4.46732e-010 5.35586e-010 2.45996e-009 -7.12701e-010 9.50541e-010 4.25699e-009 -4.46734e-010 5.35582e-010 2.45998e-009 -7.73091 5.47488 -0.417314 -4.46733e-010 5.35581e-010 2.45996e-009 -2.90554 0.965183 -0.102902 -4.46739e-010 5.35583e-010 2.45997e-009 -10.2786 0.731801 -0.0259123 -4.46727e-010 5.35586e-010 2.45996e-009 -2.22167 -0.733487 0.20892 -2.03217e-016 0 -3.88251e-019 5.30524 -5.8877 27.4579 0.0366544 -1.67853 0.32389 -5.10333 -5.31005 -25.2519 2.03217e-016 0 3.88251e-019 0.558975 -5.25449 -47.8014 0.050121 12.4492 0.31167 22.5879 -18.1708 60.1747 
1.44925 82.0759 53.894 -6.57412 10.852 -3.75614 5.20317 -8.22363 3.57766 -4.16586 -11.0456 0.300249 -6.0637 8.24845 -12.7466 15.2641 -7.12026 -23.3995 -0 0 0 -0 0 0 -5.60646e-014 1.18623e-013 -3.90379e-014 87.6003 -13.5375 -11.5798 -10.1123 -4.10439 18.1139 -6.78849 55.8639 12.241 2.23768e-009 -1.10102e-009 -1.0949e-010 3.84531e-009 -1.85809e-009 -2.82002e-010 2.23769e-009 -1.10103e-009 -1.09506e-010 7.73091 5.47488 0.417314 2.23768e-009 -1.10103e-009 -1.09497e-010 2.90554 0.965183 0.102902 2.23769e-009 -1.10102e-009 -1.09496e-010 10.2786 0.731801 0.0259123 2.23768e-009 -1.10102e-009 -1.09489e-010 2.22167 -0.733487 -0.20892 -5.61206e-014 1.18598e-013 -3.93151e-014 -87.3544 -4.5817 14.0532 9.02564 -3.48801 -16.0615 1.50844 31.7392 -5.01984 -3.271e-010 7.04336e-010 2.66186e-009 -5.0302e-010 1.24356e-009 4.60409e-009 -3.27103e-010 7.04332e-010 2.66187e-009 -7.73091 5.47488 -0.417314 -3.271e-010 7.04331e-010 2.66186e-009 -2.90554 0.965183 -0.102902 -3.27107e-010 7.04334e-010 2.66186e-009 -10.2786 0.731801 -0.0259123 -3.27096e-010 7.04336e-010 2.66186e-009 -2.22167 -0.733487 0.20892 -2.03217e-016 0 -3.88251e-019 5.87944 -6.41943 29.1019 0.0399884 -1.58588 0.35218 -5.622 -5.65439 -26.8935 2.03217e-016 0 3.88251e-019 0.970705 -5.03926 -51.3429 0.0590665 12.3472 0.369584 25.357 -17.2634 64.4409 
